<svg width="32" height="33" viewBox="0 0 32 33" fill="none" xmlns="http://www.w3.org/2000/svg">
<rect y="0.5" width="32" height="32" rx="16" fill="#4D98EE"/>
<rect x="0.16" y="0.66" width="31.68" height="31.68" rx="15.84" stroke="black" stroke-opacity="0.1" stroke-width="0.32"/>
<g clip-path="url(#clip0_83_259)">
<path d="M16.9473 15.7778C17.3964 15.7778 17.7871 15.8594 18.1191 16.0229C18.4561 16.1821 18.7148 16.4103 18.8955 16.7065C19.0762 16.9983 19.166 17.3366 19.166 17.7212C19.166 18.2783 19.0371 18.7757 18.7783 19.2134C18.5244 19.6511 18.1631 19.9917 17.6943 20.2349C17.2305 20.478 16.6953 20.5991 16.0898 20.5991C15.6506 20.5991 15.2645 20.5175 14.9326 20.354C14.6008 20.1905 14.3446 19.9606 14.1641 19.6646C13.9834 19.3639 13.8926 19.0209 13.8926 18.6362C13.8926 18.0749 14.0197 17.5797 14.2734 17.1509C14.5322 16.7176 14.8917 16.3818 15.3506 16.1431C15.8145 15.8999 16.3467 15.7778 16.9473 15.7778ZM21.5469 16.0786C21.682 16.0787 21.7881 16.1711 21.7764 16.2788L21.3887 18.5396C21.3302 18.799 21.5605 19.2202 22.0029 19.2202C22.8171 19.2614 23.0379 18.6283 23.1729 18.1538L23.5088 16.2388C23.524 16.1471 23.6218 16.0786 23.7373 16.0786H25.1123C25.2503 16.0786 25.358 16.175 25.3418 16.2847L24.7627 18.9067C24.6318 19.3609 24.3147 19.8086 23.877 20.0894C23.3062 20.4553 22.5567 20.6059 22.0029 20.5981C20.2611 20.5981 19.491 19.5834 19.6348 18.3843C19.7772 17.1967 19.9766 16.2624 19.9805 16.2446C19.9922 16.1503 20.0916 16.0786 20.21 16.0786H21.5469ZM12.0156 13.6519C12.1753 13.6519 12.2949 13.7993 12.2617 13.9556L11.9658 15.3423L13.1895 15.3364C13.3223 15.3357 13.4236 15.4263 13.4248 15.5474L13.4346 16.5522C13.4356 16.6938 13.3006 16.8187 13.1455 16.8198L11.6494 16.8276L11.2275 18.8149C11.1985 19.0501 11.5505 19.1874 11.7646 19.0249L12.2764 18.6353C12.3697 18.5641 12.4999 18.5677 12.5898 18.6431L13.4746 19.3853C13.5978 19.4887 13.5928 19.6803 13.4648 19.7778L13.0439 20.0991C11.5844 21.2107 9.18278 20.2716 9.38281 18.6675L10.4307 13.8501C10.4557 13.7348 10.5578 13.6521 10.6758 13.6519H12.0156ZM4.22852 14.0806C4.42966 14.0806 4.58226 14.2624 4.54688 14.4604L3.98633 17.5981C3.92699 17.871 4.01899 18.1947 4.21094 18.4448C4.40888 18.7026 4.72656 18.9012 5.13965 18.9028C5.83027 18.9367 6.20032 18.7088 6.51855 18.3374C6.8268 17.9777 6.97492 17.5029 7.07227 17.0776L7.07324 17.0728L7.64355 14.3442C7.67484 14.1946 7.80706 14.0874 7.95996 14.0874H9.20312C9.40969 14.0874 9.56324 14.2783 9.51855 14.48L8.70215 18.1665C8.52162 18.934 8.10277 19.5134 7.44531 19.9351C6.69491 20.4162 6.13517 20.5272 5.4502 20.5396H5.14551C3.74929 20.5407 3.01785 20.1807 2.57324 19.6421C2.12596 19.1002 1.99511 18.3291 2.10449 17.4175L2.60059 14.3511C2.62606 14.195 2.76081 14.0808 2.91895 14.0806H4.22852ZM27.7363 15.9722C27.8588 15.9723 27.957 16.0592 27.9814 16.1694C28.2307 16.061 28.5124 15.9988 28.8184 16.019C29.6721 16.0757 30.0245 16.3802 30.127 16.5854C30.154 16.6396 30.1404 16.7024 30.1094 16.7544L29.3818 17.9683C29.276 18.1448 29.0016 18.1303 28.876 17.9673C28.6685 17.6981 28.3629 17.4508 27.9932 17.4927C27.8786 17.5057 27.7646 17.5472 27.6543 17.6079L26.9941 20.3013C26.9666 20.4135 26.8656 20.4926 26.75 20.4927H25.3633C25.2004 20.4925 25.081 20.3394 25.1201 20.1812L26.1123 16.1636C26.14 16.0517 26.2402 15.9724 26.3555 15.9722H27.7363ZM16.7422 17.1372C16.4883 17.1372 16.2656 17.1975 16.0752 17.3169C15.885 17.4362 15.7382 17.5972 15.6357 17.8003C15.5381 17.9993 15.4893 18.2164 15.4893 18.4507C15.4893 18.6939 15.5606 18.8839 15.7021 19.021C15.8486 19.158 16.0608 19.227 16.3389 19.2271C16.5927 19.2271 16.8126 19.1666 16.998 19.0474C17.1885 18.9236 17.333 18.7619 17.4307 18.563C17.5282 18.3597 17.5771 18.1409 17.5771 17.9067C17.5771 17.6637 17.5038 17.4759 17.3574 17.3433C17.2158 17.2062 17.0107 17.1372 16.7422 17.1372Z" fill="white"/>
</g>
<defs>
<clipPath id="clip0_83_259">
<rect width="28.3853" height="7.01522" fill="white" transform="translate(1.80762 13.5737)"/>
</clipPath>
</defs>
</svg>
